<svg width="1922" height="1922" xmlns="http://www.w3.org/2000/svg" xmlns:xlink="http://www.w3.org/1999/xlink" overflow="hidden"><defs><clipPath id="clip0"><rect x="-1" y="-1" width="1922" height="1922"/></clipPath></defs><g clip-path="url(#clip0)" transform="translate(1 1)"><path d="M951.5 68 1587 385.751 1587 1327.25 951.5 1645 316 1327.25 316 385.751Z" fill="#E2F0D9" fill-rule="evenodd"/><path d="M826 215 1462 533.001 1462 1474 826 1792 190 1474 190 533.001Z" fill="#C5E0B4" fill-rule="evenodd"/><path d="M1076.5 220 1712 537.751 1712 1479.25 1076.5 1797 441 1479.25 441 537.751Z" fill="#C5E0B4" fill-rule="evenodd"/><path d="M953.5 281 1589 598.751 1589 1540.25 953.5 1858 318 1540.25 318 598.751Z" fill="#A9D18E" fill-rule="evenodd"/><path d="M888.76 1343.78C889.644 1343.9 890.345 1344.38 890.863 1345.22 891.898 1346.9 892.415 1350.33 892.415 1355.51 892.415 1359.04 892.351 1361.85 892.221 1363.92 892.092 1365.99 891.855 1367.63 891.51 1368.83 891.164 1370.04 890.69 1370.9 890.086 1371.42 889.482 1371.94 888.663 1372.46 887.628 1372.97L813.096 1407.91 886.204 1441.81C887.498 1442.42 888.555 1443.02 889.375 1443.62 890.194 1444.23 890.819 1445.15 891.251 1446.41 891.682 1447.66 891.984 1449.34 892.156 1451.45 892.329 1453.57 892.415 1456.43 892.415 1460.06 892.415 1463.25 892.286 1465.75 892.027 1467.56 891.768 1469.37 891.359 1470.67 890.798 1471.44 890.237 1472.22 889.547 1472.56 888.728 1472.48 887.908 1472.39 886.851 1472.05 885.557 1471.44L786.312 1422.01C785.104 1421.32 784.22 1419.88 783.659 1417.68 783.098 1415.48 782.818 1412.18 782.818 1407.78 782.818 1405.54 782.904 1403.58 783.077 1401.89 783.249 1400.21 783.465 1398.83 783.724 1397.75 783.983 1396.67 784.349 1395.81 784.824 1395.17 785.298 1394.52 785.837 1394.02 786.441 1393.68L885.557 1344.51C886.808 1343.9 887.876 1343.66 888.76 1343.78ZM1036.84 1343.47C1037.7 1343.56 1038.74 1343.9 1039.95 1344.51L1139.32 1394.07C1140.44 1394.58 1141.33 1395.96 1141.97 1398.21 1142.62 1400.45 1142.94 1403.77 1142.94 1408.17 1142.94 1410.41 1142.86 1412.35 1142.69 1413.99 1142.51 1415.63 1142.28 1417.01 1141.97 1418.13 1141.67 1419.25 1141.28 1420.14 1140.81 1420.79 1140.33 1421.43 1139.8 1421.89 1139.19 1422.14L1039.95 1471.31C1038.74 1471.92 1037.7 1472.18 1036.84 1472.09 1035.98 1472 1035.27 1471.53 1034.71 1470.67 1034.14 1469.8 1033.76 1468.53 1033.54 1466.85 1033.33 1465.17 1033.22 1463.03 1033.22 1460.44 1033.22 1456.91 1033.28 1454.1 1033.41 1452.03 1033.54 1449.96 1033.78 1448.32 1034.12 1447.12 1034.47 1445.91 1034.94 1445.03 1035.55 1444.46 1036.15 1443.9 1036.97 1443.41 1038.01 1442.98L1112.54 1408.04 1039.43 1374.14C1038.05 1373.53 1036.95 1372.93 1036.13 1372.33 1035.31 1371.72 1034.68 1370.8 1034.25 1369.55 1033.82 1368.29 1033.54 1366.61 1033.41 1364.5 1033.28 1362.39 1033.22 1359.52 1033.22 1355.89 1033.22 1352.7 1033.33 1350.2 1033.54 1348.39 1033.76 1346.58 1034.14 1345.28 1034.71 1344.51 1035.27 1343.73 1035.98 1343.39 1036.84 1343.47ZM1000.61 1290.16C1004.23 1290.16 1007.14 1290.33 1009.34 1290.68 1011.54 1291.02 1013.2 1291.54 1014.32 1292.23 1015.44 1292.92 1016.09 1293.81 1016.26 1294.88 1016.44 1295.96 1016.31 1297.24 1015.88 1298.7L938.627 1516.08C938.195 1517.21 937.635 1518.11 936.945 1518.8 936.254 1519.49 935.284 1520.05 934.033 1520.48 932.782 1520.92 931.23 1521.24 929.375 1521.45 927.52 1521.67 925.17 1521.78 922.323 1521.78 918.786 1521.78 915.896 1521.61 913.654 1521.26 911.411 1520.92 909.707 1520.4 908.542 1519.71 907.378 1519.02 906.709 1518.13 906.537 1517.05 906.364 1515.98 906.537 1514.7 907.054 1513.24L984.432 1295.98C984.777 1294.86 985.295 1293.94 985.985 1293.2 986.675 1292.47 987.624 1291.89 988.832 1291.46 990.039 1291.02 991.614 1290.7 993.555 1290.48 995.496 1290.27 997.846 1290.16 1000.61 1290.16Z" stroke="#385723" stroke-linejoin="round" stroke-miterlimit="10" fill="#385723" fill-rule="evenodd"/><text fill="#000000" fill-opacity="0" font-family="Arial,Arial_MSFontService,sans-serif" font-size="231.616" x="782.818" y="1492.83">&lt;/&gt;</text><text fill="#595959" font-family="Calibri,Calibri_MSFontService,sans-serif" font-weight="700" font-size="267" transform="translate(582.343 1131)">Streets<tspan fill="#404040" font-weight="400" font-size="293" x="-143.259" y="-204">Learning</tspan></text></g></svg>