<svg width="98" height="98" xmlns="http://www.w3.org/2000/svg" xmlns:xlink="http://www.w3.org/1999/xlink" overflow="hidden"><defs><clipPath id="clip0"><rect x="-1" y="-1" width="98" height="98"/></clipPath></defs><g clip-path="url(#clip0)" transform="translate(1 1)"><path d="M48 2.99995 80.0001 19 80.0001 65.9999 48 81.9999 16.0001 65.9999 16.0001 19Z" fill="#E2F0D9" fill-rule="evenodd"/><path d="M41.5 11 73 26.75 73 74.25 41.5 90 10 74.25 10 26.75Z" fill="#C5E0B4" fill-rule="evenodd"/><path d="M54 10.9999 86.0001 27 86.0001 73.9999 54 89.9999 22.0001 73.9999 22.0001 27Z" fill="#C5E0B4" fill-rule="evenodd"/><path d="M47.5 14 79 29.75 79 77.25 47.5 93 16 77.25 16 29.75Z" fill="#A9D18E" fill-rule="evenodd"/><path d="M44.0007 69.6047C44.1205 69.5474 44.2025 69.55 44.2468 69.6125 44.291 69.675 44.3132 69.8287 44.3132 70.0735 44.3132 70.2245 44.3093 70.3443 44.3015 70.4328 44.2936 70.5214 44.2806 70.593 44.2624 70.6477 44.2442 70.7024 44.2181 70.744 44.1843 70.7727 44.1504 70.8013 44.1022 70.8313 44.0397 70.8625L39.0085 73.3235 44.0085 75.7453C44.0762 75.7818 44.1296 75.8143 44.1686 75.843 44.2077 75.8716 44.2377 75.9133 44.2585 75.968 44.2793 76.0227 44.2936 76.0956 44.3015 76.1867 44.3093 76.2779 44.3132 76.399 44.3132 76.55 44.3132 76.6802 44.308 76.7857 44.2976 76.8664 44.2871 76.9472 44.2689 77.0044 44.2429 77.0383 44.2168 77.0722 44.1843 77.0865 44.1452 77.0813 44.1061 77.0761 44.058 77.0578 44.0007 77.0266L37.8444 73.9172C37.7923 73.8912 37.7507 73.8287 37.7194 73.7297 37.6882 73.6307 37.6726 73.4875 37.6726 73.3 37.6726 73.2167 37.6765 73.1386 37.6843 73.0656 37.6921 72.9927 37.7051 72.9328 37.7233 72.886 37.7416 72.8391 37.7624 72.7987 37.7858 72.7649 37.8093 72.731 37.8366 72.7089 37.8679 72.6985ZM52.0866 69.5656C52.1283 69.5709 52.1778 69.5891 52.2351 69.6203L58.3913 72.7219C58.4434 72.7479 58.4864 72.8117 58.5202 72.9133 58.5541 73.0149 58.571 73.1542 58.571 73.3313 58.571 73.4198 58.5658 73.4992 58.5554 73.5695 58.545 73.6399 58.5319 73.7011 58.5163 73.7531 58.5007 73.8052 58.4798 73.8456 58.4538 73.8742 58.4278 73.9029 58.3991 73.925 58.3679 73.9406L52.2351 77.0344C52.1778 77.0604 52.1283 77.0748 52.0866 77.0774 52.0449 77.08 52.0124 77.063 51.989 77.0266 51.9655 76.9901 51.9486 76.9341 51.9382 76.8586 51.9278 76.7831 51.9226 76.6854 51.9226 76.5656 51.9226 76.4198 51.9252 76.3026 51.9304 76.2141 51.9356 76.1255 51.9473 76.0539 51.9655 75.9992 51.9838 75.9445 52.0111 75.9016 52.0476 75.8703 52.084 75.8391 52.1309 75.8104 52.1882 75.7844L57.2272 73.3078 52.2194 70.8938C52.1517 70.8625 52.0983 70.8326 52.0593 70.8039 52.0202 70.7753 51.9903 70.7323 51.9694 70.675 51.9486 70.6177 51.9356 70.5435 51.9304 70.4524 51.9252 70.3612 51.9226 70.2401 51.9226 70.0891 51.9226 69.9537 51.9278 69.8482 51.9382 69.7727 51.9486 69.6972 51.9655 69.6425 51.989 69.6086 52.0124 69.5748 52.0449 69.5604 52.0866 69.5656ZM50.5944 66.3313C50.7246 66.3313 50.8314 66.3404 50.9147 66.3586 50.9981 66.3768 51.0632 66.4016 51.1101 66.4328 51.1569 66.4641 51.1856 66.5057 51.196 66.5578 51.2064 66.6099 51.1986 66.6698 51.1726 66.7375L46.446 79.6985C46.4252 79.7662 46.3978 79.8195 46.364 79.8586 46.3301 79.8977 46.2871 79.9276 46.2351 79.9485 46.183 79.9693 46.1192 79.9849 46.0436 79.9953 45.9681 80.0057 45.8757 80.011 45.7663 80.011 45.6361 80.011 45.528 80.0018 45.4421 79.9836 45.3561 79.9654 45.2897 79.9393 45.2429 79.9055 45.196 79.8716 45.1673 79.83 45.1569 79.7805 45.1465 79.731 45.1569 79.6724 45.1882 79.6047L49.9147 66.6438C49.9356 66.5761 49.9629 66.5227 49.9968 66.4836 50.0306 66.4445 50.0723 66.4133 50.1218 66.3899 50.1712 66.3664 50.2351 66.3508 50.3132 66.343 50.3913 66.3352 50.4851 66.3313 50.5944 66.3313Z" stroke="#385723" stroke-linejoin="round" stroke-miterlimit="10" fill="#385723" fill-rule="evenodd"/><text fill="#000000" fill-opacity="0" font-family="Arial,Arial_MSFontService,sans-serif" font-size="13.6797" x="37.6726" y="78.301">&lt;/&gt;</text><text fill="#595959" font-family="Calibri,Calibri_MSFontService,sans-serif" font-weight="700" font-size="14" transform="translate(31.5742 60)">Street<tspan fill="#404040" font-weight="400" font-size="16" x="-7.37564" y="-11">ReactJs</tspan></text></g></svg>